<?xml version="1.0" encoding="utf-8"?>
<!-- Generator: Adobe Illustrator 21.1.0, SVG Export Plug-In . SVG Version: 6.00 Build 0)  -->
<svg version="1.1" id="Layer_1" focusable="false" xmlns="http://www.w3.org/2000/svg" xmlns:xlink="http://www.w3.org/1999/xlink"
	 x="0px" y="0px" viewBox="0 0 576 512" style="enable-background:new 0 0 576 512;" xml:space="preserve">
<style type="text/css">
	.st0{fill:#FFFFFF;}
</style>
<path class="st0" d="M512,320c0,0-64,92.6-64,128s28.7,64,64,64s64-28.6,64-64S512,320,512,320z M502.6,217.1L294.9,9.4
	C288.7,3.1,280.5,0,272.3,0s-16.4,3.1-22.6,9.4L168.1,91L81.9,4.8c-6.3-6.3-16.4-6.3-22.6,0L36.7,27.4c-6.2,6.2-6.2,16.4,0,22.6
	l86.2,86.2l-94.8,94.8c-37.5,37.5-37.5,98.3,0,135.8l117.2,117.2c18.7,18.7,43.3,28.1,67.9,28.1c24.6,0,49.1-9.4,67.9-28.1
	l221.6-221.6C515.1,249.8,515.1,229.6,502.6,217.1z M386.4,288H65.9c1.4-3.8,3.6-8,7.4-11.8l13.2-13.1l81.6-81.6l58.6,58.6
	c12.5,12.5,32.8,12.5,45.2,0s12.5-32.8,0-45.2l-58.6-58.6l59-58.9l162.4,162.4L386.4,288L386.4,288z"/>
</svg>
