<?xml version="1.0" encoding="utf-8"?>
<!-- Generator: Adobe Illustrator 21.1.0, SVG Export Plug-In . SVG Version: 6.00 Build 0)  -->
<svg version="1.1" id="Layer_1" focusable="false" xmlns="http://www.w3.org/2000/svg" xmlns:xlink="http://www.w3.org/1999/xlink"
	 x="0px" y="0px" viewBox="0 0 512 512" style="enable-background:new 0 0 512 512;" xml:space="preserve">
<style type="text/css">
	.st0{fill:#333333;}
</style>
<g id="XMLID_1_">
	<g>
		<path class="st0" d="M483.9,256c0-62.1-24.9-118.5-65.2-159.6c0,0,0-0.1,0-0.1c-1.8-6.2-6.9-10.8-13-12.2c0,0,0,0-0.1,0
			c-40-34.9-92.4-56-149.6-56c-125.9,0-227.9,102-227.9,227.9s102,227.9,227.9,227.9S483.9,381.9,483.9,256z M256,0
			c141.4,0,256,114.6,256,256S397.4,512,256,512S0,397.4,0,256S114.6,0,256,0z"/>
		<path class="st0" d="M418.7,96.4c0.7,2.5,0.9,5.1,0.4,7.9l-53.2,319.3c-1.9,11.4-13.9,17.9-24.4,13.5l-92.1-38.6l-46.9,57.1
			c-10.3,12.6-31.4,5.7-31.4-11.7v-59.5l178-216.9c3.4-4.2-2.3-9.7-6.4-6.1L130.4,348.5l-78.6-33c-13.3-5.6-15-24.2-1.6-31.9
			L392.8,86c4.2-2.4,8.7-2.9,12.8-1.9C410.2,88,414.5,92.2,418.7,96.4z"/>
		<path class="st0" d="M405.7,84.1c6.1,1.4,11.2,6,13,12.2C414.5,92.1,410.2,88,405.7,84.1z"/>
		<path class="st0" d="M418.7,96.3c0,0,0,0.1,0,0.1c-4.2-4.3-8.6-8.4-13.1-12.3c0,0,0,0,0.1,0C410.2,88,414.5,92.1,418.7,96.3z"/>
	</g>
	<g>
	</g>
</g>
</svg>
