<?xml version="1.0" encoding="utf-8"?>
<!-- Generator: Adobe Illustrator 21.1.0, SVG Export Plug-In . SVG Version: 6.00 Build 0)  -->
<svg version="1.1" id="Layer_1" xmlns="http://www.w3.org/2000/svg" xmlns:xlink="http://www.w3.org/1999/xlink" x="0px" y="0px"
	 viewBox="0 0 1080 1080" style="enable-background:new 0 0 1080 1080;" xml:space="preserve">
<style type="text/css">
	.st0{fill:#FFFFFF;stroke:#000000;stroke-width:2;stroke-miterlimit:10;}
</style>
<g>
	<g>
		<g>
			<path class="st0" d="M436.5,36.1l-34.4,326.8l470.4-213.8C753.7,48,592.7,4.6,436.5,36.1z"/>
			<path class="st0" d="M369,52.6c-14,5-28.1,10.5-42.1,16.8C190.4,131.4,94,246.1,50.6,378.6L320,571.6L369,52.6z"/>
			<path class="st0" d="M34.1,443.3C15,544,25.5,651.1,70.9,751.3c22.6,49.5,52.2,93.7,86.8,132.1l300.2-136.2L34.1,443.3z"/>
			<path class="st0" d="M706.3,1025.6c15.7-5.4,31.4-11.5,46.7-18.4c139.8-63.5,237.5-182.2,279.2-318.6L761.4,502.5L706.3,1025.6z"
				/>
			<path class="st0" d="M641.7,1043l34.6-326.8L205.9,930.1C324.6,1031.1,485.6,1074.5,641.7,1043z"/>
			<path class="st0" d="M1008.7,325.3c-22-48.2-50.3-91.4-83.8-129.1L624.3,332.9l423.4,290.9C1064.3,525.9,1053,422.2,1008.7,325.3
				z"/>
		</g>
	</g>
	<g>
	</g>
	<g>
	</g>
	<g>
	</g>
	<g>
	</g>
	<g>
	</g>
	<g>
	</g>
	<g>
	</g>
	<g>
	</g>
	<g>
	</g>
	<g>
	</g>
	<g>
	</g>
	<g>
	</g>
	<g>
	</g>
	<g>
	</g>
	<g>
	</g>
</g>
</svg>
