<?xml version="1.0" encoding="utf-8"?>
<!-- Generator: Adobe Illustrator 21.1.0, SVG Export Plug-In . SVG Version: 6.00 Build 0)  -->
<svg version="1.1" id="Layer_1" focusable="false" xmlns="http://www.w3.org/2000/svg" xmlns:xlink="http://www.w3.org/1999/xlink"
	 x="0px" y="0px" viewBox="0 0 512 512" style="enable-background:new 0 0 512 512;" xml:space="preserve">
<style type="text/css">
	.st0{fill:#FFFFFF;}
</style>
<path class="st0" d="M418.7,96.3c-1.8-6.2-6.9-10.8-13-12.2C410.2,88,414.5,92.1,418.7,96.3z"/>
<path class="st0" d="M392.8,86L50.2,283.6c-13.4,7.7-11.7,26.3,1.6,31.9l78.6,33l212.3-187.1c4.1-3.6,9.8,1.9,6.4,6.1l-178,216.9
	v59.5c0,17.4,21.1,24.3,31.4,11.7l46.9-57.1l92.1,38.6c10.5,4.4,22.5-2.1,24.4-13.5l53.2-319.3c0.5-2.8,0.3-5.5-0.4-8
	c-4.2-4.2-8.5-8.3-13-12.2C401.5,83.1,397,83.6,392.8,86z"/>
<path class="st0" d="M256,0C114.6,0,0,114.6,0,256s114.6,256,256,256s256-114.6,256-256S397.4,0,256,0z M256,483.9
	c-125.9,0-227.9-102-227.9-227.9S130.1,28.1,256,28.1s227.9,102,227.9,227.9S381.9,483.9,256,483.9z"/>
</svg>
