<svg xmlns="http://www.w3.org/2000/svg" xmlns:xlink="http://www.w3.org/1999/xlink" viewBox="0 0 1051.33 405.51"><defs><style>.cls-1{fill:url(#linear-gradient);}.cls-2{fill:url(#linear-gradient-2);}.cls-3{fill:#e6e6e6;}.cls-4{fill:none;stroke:#000;stroke-miterlimit:10;}.cls-5{fill:url(#linear-gradient-3);}.cls-6{fill:url(#linear-gradient-4);}.cls-7{fill:url(#linear-gradient-5);}.cls-8{fill:#fff;}</style><linearGradient id="linear-gradient" x1="-666.1" y1="-1004.81" x2="-196.04" y2="-1004.81" gradientTransform="translate(33.66 1289.55) rotate(33.25)" gradientUnits="userSpaceOnUse"><stop offset="0" stop-color="blue"/><stop offset="1" stop-color="#29abe2"/></linearGradient><linearGradient id="linear-gradient-2" x1="255.62" y1="-1390.01" x2="281.58" y2="-1390.01" xlink:href="#linear-gradient"/><linearGradient id="linear-gradient-3" x1="405.43" y1="86.56" x2="428.98" y2="86.56" gradientTransform="matrix(1, 0, 0, 1, 0, 0)" xlink:href="#linear-gradient"/><linearGradient id="linear-gradient-4" x1="330.62" y1="358.56" x2="356.8" y2="358.56" gradientTransform="matrix(1, 0, 0, 1, 0, 0)" xlink:href="#linear-gradient"/><linearGradient id="linear-gradient-5" x1="74.45" y1="7.56" x2="89.97" y2="7.56" gradientTransform="matrix(1, 0, 0, 1, 0, 0)" xlink:href="#linear-gradient"/></defs><title>Splash-can-logo</title><g id="Layer_2" data-name="Layer 2"><g id="Layer_1-2" data-name="Layer 1"><path class="cls-1" d="M340.09,321.2c-31,20-31.24,33.51-54.14,51.3-18.58,14.43-36.93,20.55-59.66,26.41a203.8,203.8,0,0,1-47.83,6.58c-12.24.11-59.42-.09-102.13-29.44C5.44,327.34-12.57,226.18,7.94,188.82c4.29-7.81,13.8-19.27,14-37,.19-16.76-8.05-29.84-.47-39.53,3.08-3.93,5.86-2.59,10.11-6.5C50.83,88.06,42.94,54.42,47.93,53.7c3.24-.46,5.91,25.16,13.27,25.78,5.65.48,9.81-14,13.17-13.22,5.39,1.27,0,39.85,3.36,40.47,2.49.45,4.79-20.19,21.76-40.53,5-6,5.52-4.79,9.67-10,16.7-20.84,14.08-47.66,16.07-47.49,2.88.24-3.92,29.47,9.95,40.84,15.33,12.57,46.6-4.35,49.45,1.7,2.49,5.29-23.17,15.58-21.7,27.62,2.41,19.74,62.5,38.72,84.74,18.49,14.18-12.9,11-40,24.36-42.62,5.28-1.05,7,2.92,13.19,2.67,19.05-.75,36.51-40.15,31.7-43.79-4.28-3.24-34,16-38.23,41.9-6.26,37.84,44,76.61,57.11,69.73,10.18-5.35,8.71-34.82,6.39-35.27-2-.38-11.26,18.73-6.39,35.27,4.76,16.14,20.46,21.16,29.06,28.62,0,0,15.39,21.16,13.7,63.66-.36,9.22-3.78,12.24-1.39,15.29,6.68,8.49,35.74-3,35.74-3s-21.45,2.35-38.07,15.77a83.61,83.61,0,0,0-14,14.86c-5.92,8.21-9.45,11.88-8.45,14.93,2.14,6.5,16.6,11.34,28.84,7.89,13.75-3.88,19.44-16.74,24.63-14.45,4.31,1.9.9,11,6.69,15.46,4.21,3.25,9,.71,22-.37,10.92-.91,23.18-.42,23.34.91.2,1.69-18.92,6.87-39.94,8.75-12.31,1.1-20.3.62-20.64,2.56-.63,3.66,27,11,26.58,12.7s-28.65-10.12-58.17-1.19C360.21,309.31,353.41,312.6,340.09,321.2Z"/><path class="cls-2" d="M1026.86,280.4c-1.71,1.1-1.72,1.85-3,2.83a8.33,8.33,0,0,1-3.29,1.46,11.25,11.25,0,0,1-2.64.36,10,10,0,0,1-5.64-1.63c-3.91-2.69-4.91-8.28-3.78-10.34a3.92,3.92,0,0,0,.77-2c0-.93-.44-1.65,0-2.18.17-.22.32-.14.56-.36,1.06-1,.63-2.84.9-2.88s.33,1.39.73,1.42.54-.77.73-.73,0,2.2.19,2.23a11.15,11.15,0,0,1,1.2-2.24c.28-.33.3-.26.53-.55a5.65,5.65,0,0,0,.89-2.62c.16,0-.22,1.63.55,2.25s2.57-.24,2.73.09-1.28.86-1.2,1.53c.13,1.09,3.45,2.14,4.68,1,.78-.71.61-2.21,1.35-2.35.29-.06.39.16.73.15,1.05,0,2-2.22,1.75-2.42s-1.87.89-2.11,2.31c-.35,2.09,2.43,4.23,3.15,3.85.56-.3.48-1.92.35-1.95a2.3,2.3,0,0,0-.35,1.95c.26.89,1.13,1.17,1.6,1.58a5.88,5.88,0,0,1,.76,3.52c0,.51-.21.68-.08.84.37.47,2-.17,2-.17a4.54,4.54,0,0,0-2.1.87,4.62,4.62,0,0,0-.77.82c-.33.45-.52.66-.47.82.12.36.92.63,1.59.44s1.07-.92,1.36-.8,0,.61.37.85.5,0,1.21,0a3.36,3.36,0,0,1,1.29.05,6.09,6.09,0,0,1-2.21.48c-.68.06-1.12,0-1.14.14s1.49.61,1.47.7a7,7,0,0,0-3.21-.07A5.83,5.83,0,0,0,1026.86,280.4Z"/><path class="cls-3" d="M317.48,146.37l.33,8.53-2.27,4.64,1,.26-9.16,25.88L302,189.16l-7.78,1.6-10.53,8.09-7.35-.09-7.85,4.64L261,197l-.76-6.85,4.83-3.43-.93-6.18,6.09-6.89c.54-4.9.43-7.74-.33-8.54L261,163.89l-5.64-4-10.9-.28,0,4.14L235.67,168l-3.21-.82-38,12-7,4.13-4.39-.4-2.17,2.86-9.22.15.25,1.86-6.85.76-16.95,7.16-3,1.76,2.81,3.06c.84.93,1.87,3.24,3.09,6.9l4.48-1.36,1.59,3.64,6.85-.76,4.11,3.58,8.95,1.57,27,7.65,1.71,3.86,7.26,1.86,4.53,5.48,10.82-.82,3.71.95,2.94,3.28,4.56,1.16,2.38,3.32,4.9,1.25,1.75,3,2.57,1.2c.76.31,2.1,1.86,4,4.63l3,.78a23.85,23.85,0,0,1,7.23-.84l3.47,5.39,1.24,5,11.24,12.24,10.18,15-4.47,4.79,4.14,6.28-6.7,10.69-3.87,10.88-5,4.82a61.39,61.39,0,0,0-6.56,8.75l-8.25,2-2.56,3.66-34.09,12.29-5.14-2.4-1.45,2.87-34.24,2.36-5.68,2.5-9.45-2.43-3,1.76L160.42,356l-2.68,2-4.46-2.94-14.71,1.26-.5-.85-6.42-.93L120,354.32l-18.26-6.67-9.25.33-10.32-5.35-2.15-.73-2.15-.73-1.81-.65a17.89,17.89,0,0,1-2.82-2.7c-1.46-1.57-2.74-3-3.86-4.23l-4-10.37,3.66-11.47,3.21.1,4-2.38,5.33-1.15a36.46,36.46,0,0,1,9.71-4.88l18.06,4.63L108,313.64l-1.2,1.85,1.76,3-6.91,3.8q-1.27.75-4.56,5.13l.57,3.38,7.61,6.09,3.53-3.23,6.59.25,8.09,4.24,10,3.65,7-1.43,5.57,1.43,8,.26,3.47-.91,6.24,1.6,4.44.24,16-2,5,.2,4.28-1.24c1.19-.42,4.54-.39,10.06.06l3.13-1.71,2.19,1.28,16.21-4.29,5.71-6.81,7.77-.16.79-4.48,3.86-3.14-1-1.7,6.18-8.66.32-4.06,3.46-5.05-2-9,3.29-5.81L251.64,276,248,273.32a22.82,22.82,0,0,0-3.53-9.36l-9-.52-1.1-6.93c-.16-.77-1.21-2.53-3.13-5.31a32.48,32.48,0,0,1-7.83-5.24l-7,4.14L214.68,247l-8.25-4.28-3.47-6.1-3.18,1.88-4-2.82-4,2.22-6.48-4.9-4.25,3.94-6.64-5.66-2,3.45-6.25-1.6-.74-2.71-6.91-3.21-7,1.44-7.21-2.75q-1.14-.48-5.25-4.77l-4.32.69-2.6-2.47-1.46,2.87-9.87-1.46-.41-1.9-3.89-.28-4.81-7.17-.61-4.65q-.15-2.21-2.58-6.06a65.63,65.63,0,0,0,8.52-4.47l1.69.43,4.63-4.74,3,.78,5-3.39,10-3.36,10.64-5.72,5.72-2,6.85-.76,7-4.14,5.33-1.15,6.4-3.21,9.14-2.69,9.3-6.07,9.43-2.44A14.49,14.49,0,0,1,217.7,156l1.62-2.1,12-4.66,3,.78,5.56-4.15a53.56,53.56,0,0,0,10-3.19l1.32-2.36,4.15-.73,1-1.18a149,149,0,0,0,15.51-7.17l1.35.35.35-1.35,2.53.65,1.28-2.19,7.86-.5,15.24-4.72,3.23,4.24,6.42.93,4.88,9.71-.78,3Z"/><path class="cls-4" d="M291.94,353.82"/><path class="cls-3" d="M283.94,126.82"/><path class="cls-5" d="M428.86,89.8c.89,2.27-3.37,7.34-8.59,8.83-7.54,2.15-15.16-3.71-14.83-4.81s10.59,1.34,10.93,0c.2-.81-3.64-1.38-4.68-4-2.07-5.24,9.17-13,7.81-15.25S405.08,78,405.44,79.36s13.38-2,14.83,1.6c.63,1.55-1.47,3-.78,4.81C420.68,88.94,427.86,87.25,428.86,89.8Z"/><path class="cls-6" d="M356.55,358.58a2,2,0,0,1-.88,2.78c-1.72.42-4.92-3.95-6.18-3.59-1.45.41,2.61,6.27-.89,8.62-1.11.75-2.54.84-5,1-1.37.09-8.4.56-10.59-1.6-3.25-3.23,6.13-10.48,4.71-11.23-1.09-.58-7.8,3.05-7.06,4,.93,1.2,13.88-1.24,14.12-4,.16-1.89-5.63-3.42-5-4.42.33-.53,2.23-.7,3.83-.39,4.08.78,3.22,4.08,8.23,6.42C354.1,357.23,355.87,357.3,356.55,358.58Z"/><path class="cls-7" d="M89.82,7.58c.35.93.05,2.15-.52,2.35-1,.36-2.91-3.33-3.66-3s1.55,5.29-.53,7.28c-.66.63-1.5.71-3,.85-.81.08-5,.47-6.27-1.35C74,11,79.51,4.83,78.67,4.19,78,3.7,74,6.77,74.48,7.58c.55,1,8.23-1,8.36-3.39.09-1.59-3.33-2.88-3-3.73.2-.45,1.32-.59,2.27-.33C84.57.79,84.06,3.57,87,5.55,88.37,6.44,89.41,6.5,89.82,7.58Z"/><path class="cls-8" d="M416.34,241.21a10.91,10.91,0,0,1,5-3.71v-.4l3.17-2.22.27.4v-.67l.54-.27.47.27,4.65-3.5.27.34,1.55-1.55,1.89-.27.34-.67,2.43-1h3.91l1.75-.54q3.5,2.22,3.5,4.72l.27.27.67,4.38h-.27a20,20,0,0,0-.91,2.19,34,34,0,0,1-1.58,3.47,12.37,12.37,0,0,0,1.21,1.82l-1.21.67,1.21,2-.67,6.2v2.76l-1.21,2.9V261L442,264.66a.78.78,0,0,1,.27.54,4.26,4.26,0,0,1-.94,2h.27L438.84,274l-4.38,4.72-.61,1.55-2.16.67q-.61.81-1.28,1.55a20.69,20.69,0,0,1-1.72,1.65,4,4,0,0,1-1.92,1l-2.29.4-3.44,3.77-3.17,1a3.52,3.52,0,0,0-1.42.94l-1.75,1.89-5.93.81-5.66,4.45h-3.5l-1.48,5-.94,4.11-.27,3.17q-2,4.78-2.22,5.66l-1.28,4.31-.94,2.16-.27,3.17A21,21,0,0,0,390,330.7q-.81,2.43-1.65,4.35a8.12,8.12,0,0,0-.84,2.93l-1.89,2.43-1.28,4.45-2.9,4L378.94,356l-2.49,2.49-.81,4a14.15,14.15,0,0,1-.81,1.35,5.79,5.79,0,0,1-1.65,1.82,3.74,3.74,0,0,1-2.06.54l-1.15-.13-3-3.71q1.75-.47,3.17-4.11a3.76,3.76,0,0,0,1.68-2.49q.61-2,1.48-2h.27q1-.74,1-1.21v-.27l-.54-.74a12.52,12.52,0,0,1,1.62-2.63l.27-1.35a14.7,14.7,0,0,1,2.22-3q.47-4.45,1.79-6.27a12.37,12.37,0,0,0,1.92-4.11h.54l1-3.44A3.87,3.87,0,0,0,385,328v-2l.61.34-.61-2.76a4.06,4.06,0,0,1,.61-2l.67-.27a50.45,50.45,0,0,0,1.48-7.21l1.55-1.62-.27-1.82s.12-.44.37-1.18a19.76,19.76,0,0,0,.57-4.21h.54a12.34,12.34,0,0,0,1-4,9.62,9.62,0,0,1,.13-2.16,17.81,17.81,0,0,1,1.75-2.56l.61-5.12.94-4.38.67-13.68.94-1.89L395,268.37v-3l-.27-2.63.54-3.71-1.55-6.87v-2.76l-1.48-.4a25.18,25.18,0,0,0-3.71,3.17l-2-.27-2.49,3.44a1.66,1.66,0,0,1-.94.27q-1,0-1.18-1.38a26.85,26.85,0,0,0-.78-3.61,1.81,1.81,0,0,0,1.21-1.21l.74.27a7,7,0,0,1,3.17-4.45l5.26-3.44.27-.94h1.62L395,239a1.9,1.9,0,0,0,2-1.48l.27.27v-2.22a4,4,0,0,0,1.89-3.44h.27l3.17-3.17h.61a2.9,2.9,0,0,0,2.9-1.55l1.48-.27q2.49,0,2.76.54a21.39,21.39,0,0,0,2.63,3.44l-.94,2,.94,2.22-3.44,10.65q.94.94,1.21.94.61,0,.61-.67l2.49-3.3q1.35-1.68,2.43-1.68Zm14.35,16.31a29.07,29.07,0,0,0-.74-3,13.1,13.1,0,0,1-.61-3.4l.4-2.43v-3a7.87,7.87,0,0,0,.4-2.36l-.13-1.15q0-1.62-1.48-1.62l-.61.27L426,243.44a3.34,3.34,0,0,0-.94.64,18,18,0,0,1-2.86,1.68,27.8,27.8,0,0,0-3.94,2.43,12.79,12.79,0,0,0-2.63,2.66l-5.46,8a5.53,5.53,0,0,1-1.55,1.75l-2.36,1.62-.27,1.55h-.4a4.6,4.6,0,0,0,.67,2.49l-1.55,3.17-.67,7.14-2.76,2a9.62,9.62,0,0,0-.13,1.82,5.88,5.88,0,0,0,.67,2.9,5.62,5.62,0,0,0-.54,2.43q0,1.55,1.21,1.55,1.55,0,4.31-3.44a4.43,4.43,0,0,0,2.49.94,1.69,1.69,0,0,0,1.25-.51,15.91,15.91,0,0,1,2.59-1.72l-.27-.27h.81l-.27-.27,2.22-.67V281h.67l1.28-1v-.27h.54v-.27l2-.4q.61-2.49,3.71-3.71a3.15,3.15,0,0,1,1.21-1l1.28-2.43a36.74,36.74,0,0,1,2.9-6.94l-.4-2.22,1.21-2.16-.27-1.82Z"/><path class="cls-8" d="M501.24,267q-.54,0-.54,2.22-.94,1.08-1.79,2.16a6.11,6.11,0,0,1-1.65,1.55l-1-.27a3.16,3.16,0,0,0-1.21,2c-.09.18-.31.27-.67.27s-.47-.25-.61-.74a2.44,2.44,0,0,1-2.16,1.68v.67H491l-.67-.4a2.45,2.45,0,0,0-1.21,2h-1l.27-.4h-.54v.67l-.94,1.21h-1.21v.27h-.74v.47l-1.21.27v.27l-.54-.27-.27.54-.47-.54L479.68,282l.34.27h-.61a1.48,1.48,0,0,1-1.62,1.28,1.34,1.34,0,0,1-1.28.94l-.27.4a3.53,3.53,0,0,0-2.8,1.62,4.6,4.6,0,0,1-2.12,1.82l-.47-.67-.27.67.74.27h-1V289a7.78,7.78,0,0,0-3.17,2.16,3.07,3.07,0,0,1-2-1.21l-4-7.88a1.18,1.18,0,0,0,.54-1.08,4.66,4.66,0,0,0-.54-2.09h.27l-1.21-3.44h.67l-.67-.81.27-.47a.36.36,0,0,0,.4-.4v-.4l.54.27V273l.27-.94,1.42-.61-.4-.27a8.81,8.81,0,0,0,1.08-3.91,8.27,8.27,0,0,1,.54-3l-.67-1.21v-1.68l.67-2.22.27.4a9.1,9.1,0,0,0,1-2.49,1.61,1.61,0,0,1-.13-.81,2.65,2.65,0,0,1,.07-.81l1.28-1.28-.4-1.48.94-1.21V251l.4.47v-1.28l-.4-.4h.4l.88-2.49V247l.4.27.54-4h.27l1.42-4.18-.47.27,2.22-5.93h-.27l2.22-3v-1.62l.54-1.55q-.54-.13-1.21-1.21l1.89-3.17v-3.23l-1.21-.81a3,3,0,0,1,.54-1.21,5.75,5.75,0,0,0-.54-1.42l-3.17-4.65-.54-.27a3.13,3.13,0,0,0-2,.67H469a2.63,2.63,0,0,1-2.49-1.68l.67-2.22-.27-.81,1.82-1.21-.27-.4a4.43,4.43,0,0,0,3.07-2,24.51,24.51,0,0,1,1.58-2.43,3.88,3.88,0,0,0,1.52-.27,2.13,2.13,0,0,0,1-.77c.22-.34.45-.68.67-1h1l1.21-1.89v-.74l.94-.81q.87,0,1.28-1.21l-.4-.74.67.34.94-.61a2.33,2.33,0,0,1,1.31-1.45q1-.44,2.73-1.45.2-.81,1.62-1.21v-.27l1.55-.27v-.4l4.92-2.76v-.27a1.88,1.88,0,0,1,1.68-1q1.82,0,1.82,3.57v1.42h-.27v.94a4.58,4.58,0,0,1-2.49,4.45,2.33,2.33,0,0,1-.91,1.55,17,17,0,0,0-2.26,2.43h.27q-1.08.67-1.31,2.9a16.77,16.77,0,0,1-.91,4l-.27-.34.27,1.28h-.27l-.27.27.54.54a2.26,2.26,0,0,0-.81,1.52q-.07.84-.27.84h-.2l-1.21,1.55a2.21,2.21,0,0,1,1.21,1.75q0,.54-.81.67v.74l-.4-.27v3.44h-1.21l-.61,2,.34,2-.74,1.55v.4h-.54l.27,1.48-.54-.27-.94,5.93-2,6.2-.54,2.49a3.5,3.5,0,0,0-1,2,9.12,9.12,0,0,0,.34,2,29.83,29.83,0,0,0-2.76,9.64l-.74.27-.27.4a5.44,5.44,0,0,1-.67,2.09l-.27,6.06.67,2.09-.4,4.11,2,4A1.46,1.46,0,0,0,476,273h-.4l1.21,1.21-.27,1h.74l1.21,1.21,1.21-1.21,1.55-.67a9.7,9.7,0,0,0,2-1.55h1.48v-.54l.27.27a6.45,6.45,0,0,1,4.18-2.22l-.27-.27,2.16-.67V269a4.7,4.7,0,0,0,3-2,4.27,4.27,0,0,0,3.23-1.82h.54l1.89-1.35Z"/><path class="cls-8" d="M563.23,218.3a9.86,9.86,0,0,1,2.63.13,4.7,4.7,0,0,1,2.76.94l2.29-.54,1.28.13.94,1.82-.13,1.35a5.5,5.5,0,0,0-1.82,2.36h-.67l-.74.81a11,11,0,0,1-2.83,1.15L566.8,239l1.08,6.47.13,6.67,1,8.15,4.25,11.59a12.13,12.13,0,0,1,1.55,2q3.37-1.89,4.25-1.89,2.76-3.17,3.57-3.3V268l7.61-6.47.13-1.21q.74-.13,2.9-2.63l2.49.54,1.35,3-.54,2.63-1.35-.54-.67,1.48h-1.28a7.84,7.84,0,0,1-2.22,3.3v.74l-3.71,3.44-.67,1.75a37.68,37.68,0,0,1-4.31,2.36l-.54,1-.13-.34-.81,1.42-1.82.54-.27.94h-.94l.4,1-1.08,2.09-1,.27q.13,1.08-2.22,4l-3.17.13-.67,2-2,.54a6,6,0,0,1-3.57-2.76l-4.51-7.34-4.31-9.64.4-3.57-.94-3.17.67-.13q-2-3.91-2-5.93l.34-2.49-2.09-1.28-1.42.88v-.34l-.67.34-1.82,4.65-.94-.4-.27.94-.67-.27V260h-.27a23.33,23.33,0,0,1-2,3.44l-.54-.27-.4,2.9-1.42.74a3.64,3.64,0,0,0-1.82,1.75l-.54,1.35.61.81-1.55.54-.67,2.76-1.15.61.34.54a12.59,12.59,0,0,1-2.63,1.62l-.61,1-.54-.74-.94,2.36h-.81l-1.15,3.91-1.21.4-.13,2h-2l-2,4.45-.94.67h-.81l-.27,1.28-4.31,1.62-4.51.13-2-12.8.81-1.68.2-1.35a29.24,29.24,0,0,1,1.62-4l-.27-.94a24.18,24.18,0,0,1,1.62-3.3l-.54-.27,1.28-3.3.07-1.28a11.66,11.66,0,0,1,1-2.49q-.54-3.23-1.08-3.71l.54-.94,1.75.27a8.88,8.88,0,0,1,2-2.22l.4-1.21h.27l-.94-1.42.81-3.57.54.27q.81-2.09,1-2.09l-.27-1.75,1.89-3.5v-.94l-.4-.81,2.76-5.93,3.17-4.31a15.4,15.4,0,0,0,2.76-3.17l2.36-.94,3.17-3.3,3-1.82h1.82l1.48-.4h2.09l.94-1.55,2,.13h2V219a3.91,3.91,0,0,1,1.75.67l2.09-.81,1.55.4.4-.54,1.62.54ZM545.85,229l-1.68.27-2.09-.13-.67,1.21v1a16.12,16.12,0,0,1-2.36.94l-1.21,3a20.16,20.16,0,0,1-1.15,4.11H536l-.94,2.22-.47,1.89a2.18,2.18,0,0,1-1.35,1.42l-.67,2.36-1.08,2a5.11,5.11,0,0,0-.61,2.43v.54l-.67-.54v1.08h-.4l.13.67-.54,1.15-.81,3.57-1.42,2.9-.27,4.11-.4.61h-.27L526,267l.54.54-.67,2.49h-.27l.27.81h-1l.13,5,.61,2.36h.27l1.48-1.42,3.91-5.53,7-9.23,2.09-2.22,4.65-7.55,4.85-6.47.4-1.42-.94-1.21,1.75-3,.4-2.29a7.54,7.54,0,0,1,1.15-1.75l.13-5.39-1.82-.13h-1.48l-2-1.35-.4.67Z"/><path class="cls-8" d="M629.81,215.27l2.22.54,1.28,2,1.21.54-.94,3.44-3,1.82-12.33,5.93-1.89,3.3.4,3.71,4.25,6.4.88,2.9,2.43-.34,2.63,2.49v2.49l1.28.54,4.65,8.83,1.42,2.09a19.52,19.52,0,0,0-.54,3.44l.27,1-1.28,1.89-2.16,4.58q-4,3.44-4.85,5.39l-1.82.27-.27.94L615,286.09q-3.5,3.5-5.26,4l-8.09,2.22a8.52,8.52,0,0,1-2.9,2.49l-1.28-2.49v-1.55l-.94-1.21,2.63-2a7.38,7.38,0,0,1,1.15-1.75l.67-.61a14.74,14.74,0,0,1,3.23-.94,4.24,4.24,0,0,1,2.49-1.55h1q2-1.62,2.76-2.43h.94l.27-.74.94-.27.61-2h.54l1.21-2,2-.81.54-1.68.67-.54,1.28-4.18-1-2.16-2.76-8.15-6.47-4.58q-1.62-2.22-2.9-3.71l-.54-2.22a9.77,9.77,0,0,0-1.55-2.9l-.67-.27-.94-2.63v-.94a12.14,12.14,0,0,0-.94-3.3l1.75-4.45.67.27v-2l1.55-1.21v-.81a21.93,21.93,0,0,0,3.44-2.9h1.28v.94l1.21-2.49v.54q.07-.4,2.63-1.48a1.67,1.67,0,0,1,1.48-1.28,26.16,26.16,0,0,0,2.22-3.17l1.28-.27.94.27.54-.54h2.22v-.4l3.84-1.15a10.42,10.42,0,0,0,2.76-1.35Z"/><path class="cls-8" d="M686.41,174.17l1-.74,1.48,1,1.28-.27.94,1.21,2-.54a2.33,2.33,0,0,1,2.16,1.48l2.49,4.72q0,3.71-2.16,3.71h-.74l-3,3.5.27.67-.67-.4a3,3,0,0,1-2.76,1.62v.54q-1.48-1.89-7.55-4.38l-.88.67-.4-.67a12.53,12.53,0,0,0-1.82,3.44,1.46,1.46,0,0,0-.67,1.08,2.09,2.09,0,0,0,.27.88,9.8,9.8,0,0,0-1.48,1.89v2.22a16.53,16.53,0,0,1-1.28,3.71h-.27a12.6,12.6,0,0,0-.94,4.72q-.81.27-.81,1.55a2.29,2.29,0,0,0,.13.94,9.08,9.08,0,0,1-.88,2.76h-.4a20,20,0,0,0-1.21,2.63l-.27-.4v.67a22,22,0,0,0-2,5.26l-.81,4.11v3.17l.27.61a5,5,0,0,1-.94,1.21l-.34-.27-.67,1.48v2.9l-1.21,2.22v3.71l-.54,2.49v2.9l-1.68,7.21-.27,5c-.36,0-.54.13-.54.4s.18.4.54.54l-.27,2.22A2.37,2.37,0,0,0,664,259l.27-.94,2.49-3.44H667V254a21.15,21.15,0,0,0,2.43-3.44q1.42-2.36,2.63-2.49l1.28-1.89.54.27a4.6,4.6,0,0,0,.94-1.55l.27.27.47-1.48.54.27.54-1.35a2.47,2.47,0,0,1,.88-1.08l1.75-1.55,4-2-.27-.27,5.93-4.18,2.9-1.48a5.58,5.58,0,0,1,1.82-1l2.22,1.28,2.16.27.74.4a1.55,1.55,0,0,1,.54.81,5.8,5.8,0,0,1,.27.74v1.48l1.68,3.44-.47,2.9,1.42,2.76.27,3.5.94,4.38-2.16,2.49.27,1.21a6.51,6.51,0,0,1,3.71,5.93l-.54,2.22,1.21,3.17-.27,3.17.54,4.31q-.27.34-.71.81l-.51.54a13.33,13.33,0,0,0,3.17,2.09,5.3,5.3,0,0,1,1.55-1.48,10.61,10.61,0,0,0,2.16-2h1.28l.4-.67.67-.27v-.74l1.82-1.35a12.9,12.9,0,0,0,2-1.28l2.29-1.75a3,3,0,0,0,1.75-1,8.13,8.13,0,0,1,1.42-1.21l2-.13.27-.94,3.57,1.08-.27,1.21.27,2.49a5.93,5.93,0,0,0-2.49,3.5l-.27-.34-.67,1.28-1.21.67-.27.81a28.38,28.38,0,0,1-4,.74v.54a8.79,8.79,0,0,1-3.17,1.08l-.4,2.09-1.42.81a5.14,5.14,0,0,1-3.57,1.42q-1.48,2.69-3,2.76l-2,2.16-2.43.34v.54a18.65,18.65,0,0,0-4,1.21l-.27.67-.67-.27q-.4,1.55-3.17,1.55-1.15,0-2.46-2a8.6,8.6,0,0,1-1.31-2.43v-.54q-.54-4.58-.54-6.33l.13-.67-.54-1.82v-3.44l-1.75-2.49.27-2.22-.74-7.88,1.42-4.92-2.9-3.44a7.28,7.28,0,0,1-1.55-5h-.27a3.31,3.31,0,0,0,.54-1.42q0-1.75-2.43-2l-2,.94h-1.28l-.27,1.21-.27-.4q-.2,3.1-2.63,3.44v.47q-2,1.21-2,2.43l.13.88a1.5,1.5,0,0,1-.13.67l-1,.27-.94,2.22-.94.67a5,5,0,0,1-2.49,3.71,4.71,4.71,0,0,1-2.22,3.17,11.54,11.54,0,0,1-2.76,4.45l-.94,3.71,1.89,1.55L664,277.53h-.47l-.81,2.43v2.22l-.67,1-.54,1.48a3.47,3.47,0,0,1-.94,1.15l-2,1.75-.74-.4-.54,1.68h-.67a2.49,2.49,0,0,1-2.49,1.48l-.27,2.22h-1.21L651.37,294l-1.89-.27a9.3,9.3,0,0,1-1.28,1.55L647,293.5a2.18,2.18,0,0,0,.94-1.75,3.59,3.59,0,0,0-.67-1.68.94.94,0,0,0,.57-.74q.1-.54.64-2.7h-.27a3.67,3.67,0,0,0,.54-1.82,5.11,5.11,0,0,0-.27-1.62h.4a14.19,14.19,0,0,1,1.28-5.66,3.61,3.61,0,0,1-.4-1.42l.4-2.09v-.94l.94-3h.27v-.67l1-4.45.27.4-.27-2.16.54-1.42,1.21-.81-1.21-2,1.21-4.65v-1.28a1.14,1.14,0,0,0,.67-.94l-.27-1.28v-.27h.61l-.34-3.71v-.94l.34-.74h-.34l.34-2.43a8.6,8.6,0,0,0,1.11-2.73q.37-1.58.37-1.72V236.5l1.21-1.62c.58-.13.88-.43.88-.88a9.78,9.78,0,0,0-1.15-3.44l1.28-2.9v-2.49l.94-2.76.27.34.4-2.49.47-1.42-.2-.54a4.37,4.37,0,0,1,1-2.22h-.4a1.29,1.29,0,0,1,.4-.94l-.4-.27a4.7,4.7,0,0,0,.94-2v-.54h.4a4.23,4.23,0,0,1,.81-2.22l1-.27v-1.62a16.13,16.13,0,0,0,.54-3.64V202.4a3.59,3.59,0,0,1,.4-1.62l.67-.27v-2.63l.74-2.09a5,5,0,0,0,1.08-3.3v-.81l1.21-3.44a2,2,0,0,1,.74-1.55h.27l1.48-4.45a17.22,17.22,0,0,1,2-2.7,5.85,5.85,0,0,0,5-4.18,2.3,2.3,0,0,0,1.89-.94l2.49-.54,2,.27,1.21-.74Z"/><path class="cls-8" d="M817.33,275.71l-2.16,2.76-1.75,1a5.37,5.37,0,0,0-1.75,1.75,3.6,3.6,0,0,0-1.89.94h-1.55l-1.62.27-7.88,3.91-1.21-.4-.61.67-2.16.54-.74.94-1.21.4-1.55.88-1.48.27a10.79,10.79,0,0,0-2.63,1.35H785.6l-1.48,1.28-.4-.74-.27,1.28-2.22-.27-1.82,1.21h-.94l-3.44,1-2.76-1.28-1.42-2-5.26-6.2-.27-3.44.27-1.21h-.94l-.4-9,.67-3.64-.27-.94v-1.82l.94-1.62-.27-3.17,1.82-8.42v-1.28l.67,1-.4-2.22,2-5.66V243l2.49-4a8,8,0,0,1,1.21-3.17v-1.48l2.22-2.49,2.49-1.68,3.44-3.71,5.12-3.17,3.84-1.28h3L796,220.8l.27.27h2.22l2.49-.81h1.62l1.28.54v.94a4.82,4.82,0,0,0,2.22,1v.54l2.16.94v1.68l-.67,1.21a10.71,10.71,0,0,0-2,2.76,14.76,14.76,0,0,0-2.76,1.55l-1.21-.34-.94,2h-1.28l-1.21.54v2.49h-1.55l-2.22.4h-.94L791.26,238l-.94-.27-.54-1.28v-1.21l-.67-.67-2.49.27-1,1.62-.27,1-2.76,3.3-.94,3.17-1.08,2.49-.61,3-1.08,2.9-.67,9.1,1.21,8.56v.81l1,1.28v3.17l2.76,5,.54-.34.94,1h2l2.22-1.55V280l1.21-.54,3.71-.67,2.22-.94h.94l.27-.27,2.22.27a17.83,17.83,0,0,1,4.72-2.22l-.27-.54.94.27a23.08,23.08,0,0,0,3.44-1.55l1.28.27.27-.81,2.9-.54,1.75-.67h2.09l1.42,1.62Z"/><path class="cls-8" d="M875.75,218.3a9.86,9.86,0,0,1,2.63.13,4.7,4.7,0,0,1,2.76.94l2.29-.54,1.28.13.94,1.82-.13,1.35a5.5,5.5,0,0,0-1.82,2.36H883l-.74.81a11,11,0,0,1-2.83,1.15L879.32,239l1.08,6.47.13,6.67,1,8.15,4.25,11.59a12.13,12.13,0,0,1,1.55,2q3.37-1.89,4.25-1.89,2.76-3.17,3.57-3.3V268l7.61-6.47.13-1.21q.74-.13,2.9-2.63l2.49.54,1.35,3-.54,2.63-1.35-.54-.67,1.48h-1.28a7.84,7.84,0,0,1-2.22,3.3v.74l-3.71,3.44L899.2,274a37.68,37.68,0,0,1-4.31,2.36l-.54,1-.13-.34-.81,1.42-1.82.54-.27.94h-.94l.4,1-1.08,2.09-1,.27q.13,1.08-2.22,4l-3.17.13-.67,2-2,.54a6,6,0,0,1-3.57-2.76l-4.51-7.34-4.31-9.64.4-3.57-.94-3.17.67-.13q-2-3.91-2-5.93l.34-2.49-2.09-1.28-1.42.88v-.34l-.67.34-1.82,4.65-.94-.4-.27.94-.67-.27V260h-.27a23.33,23.33,0,0,1-2,3.44l-.54-.27-.4,2.9-1.42.74a3.64,3.64,0,0,0-1.82,1.75l-.54,1.35.61.81-1.55.54-.67,2.76-1.15.61.34.54a12.59,12.59,0,0,1-2.63,1.62l-.61,1-.54-.74-.94,2.36H844l-1.15,3.91-1.21.4-.13,2h-2l-2,4.45-.94.67h-.81l-.27,1.28-4.31,1.62-4.51.13-2-12.8.81-1.68.2-1.35a29.24,29.24,0,0,1,1.62-4l-.27-.94a24.18,24.18,0,0,1,1.62-3.3l-.54-.27,1.28-3.3.07-1.28a11.66,11.66,0,0,1,1-2.49q-.54-3.23-1.08-3.71l.54-.94,1.75.27a8.88,8.88,0,0,1,2-2.22l.4-1.21h.27l-.94-1.42.81-3.57.54.27q.81-2.09,1-2.09l-.27-1.75,1.89-3.5v-.94l-.4-.81,2.76-5.93,3.17-4.31a15.4,15.4,0,0,0,2.76-3.17l2.36-.94,3.17-3.3,3-1.82h1.82l1.48-.4h2.09l.94-1.55,2,.13h2V219a3.91,3.91,0,0,1,1.75.67l2.09-.81,1.55.4.4-.54,1.62.54ZM858.37,229l-1.68.27-2.09-.13-.67,1.21v1a16.12,16.12,0,0,1-2.36.94l-1.21,3a20.16,20.16,0,0,1-1.15,4.11h-.67l-.94,2.22-.47,1.89a2.18,2.18,0,0,1-1.35,1.42l-.67,2.36-1.08,2a5.11,5.11,0,0,0-.61,2.43v.54l-.67-.54v1.08h-.4l.13.67-.54,1.15-.81,3.57-1.42,2.9-.27,4.11-.4.61h-.27l-.27,1.21.54.54-.67,2.49h-.27l.27.81h-1l.13,5,.61,2.36h.27l1.48-1.42,3.91-5.53,7-9.23,2.09-2.22,4.65-7.55,4.85-6.47.4-1.42-.94-1.21,1.75-3,.4-2.29a7.54,7.54,0,0,1,1.15-1.75l.13-5.39-1.82-.13h-1.48l-2-1.35-.4.67Z"/><path class="cls-8" d="M936.53,222.41l2.63.34,3.77-.47V227a2.39,2.39,0,0,0-1.15,1.82,3.25,3.25,0,0,0-1.89,2.9,4.06,4.06,0,0,0,.13,1.21l-.47,2.63-5.05,9.1-.74,4.45-1.21,1.62.13,3.44-2,9.16a.78.78,0,0,0-.27.54,1.14,1.14,0,0,0,.67.94l3.1-3.84L936,260l1.42-3.23,2.63-1.89L943.2,250q1.28-2,5.53-3.57,0-1.14,2-3.3a9,9,0,0,0,1.68-1.21q1.42-1.14,2.63-2l-.27-.47q4.85-2.63,4.78-3.57,3.44-1.48,4.45-3.44,4.85-4.45,7-4.72a7.23,7.23,0,0,0,1.79-.64,8.35,8.35,0,0,1,2.12-.71,4.47,4.47,0,0,1,3.71-1.82q1.35,0,1.35,2l.2,4.38-.88,2.49-.13,3.17-1.48,3.77-1.55,9.5a1.26,1.26,0,0,1-.94.94l.81,3-.94,1.68,1.62.94-.54.88a11.62,11.62,0,0,0-1.35,2.16,8.65,8.65,0,0,1,1.08,1.28l-.4,5.39h.27q.67,7.08,1.55,7.14l2.9-1.08a13.68,13.68,0,0,1,5.19-4.72,3.27,3.27,0,0,0,1.82-.81q1.08,0,1.35-.67a8,8,0,0,1,2.16-1,25.5,25.5,0,0,0,4-1.79l2.29.54a3.25,3.25,0,0,1,1,1.48q-1.82,2.22-3.94,5.32t-3,3.1h-1.89l-1.42,2.09-3.44.67-3,3.91-2.49.67-9.5,6.6-2.9,2.9-.4-2.49-2.49.13-.88-4.11-1.35-1.08-.13-4.72-.67-2.9q0-3.64,1.35-3.84v-.34l.81-3.17-.13-4.38,1.55-3-1.08-1.28,2.16-2.49.13-5.19,1.15-2.49-2-2.63.54-.13v-2l1.28-.67v-.4l-.13-1.15V242a5.74,5.74,0,0,0-3-1.08l-3.23,2.63-4.51,2.09-6.6,7.41-1,1.55q-3,3-2.9,3.3l-1.35.94a11.54,11.54,0,0,0-.27,1.82l-2.63,3-2.76,4-4.72,7.48h-.27l-.81,1.89-1.28,4.45a57.74,57.74,0,0,0-5.05,4.72l-2.22.54L922,289.12l-.94.13-1.82-.4a8.55,8.55,0,0,0-3.17.67l1.42-2.76.54-2.49a91.66,91.66,0,0,0,4-11.59h.27v-2l1.42-4,.54-3.44h.27l-.67-2.22.67-4.18.47-1.48a13.76,13.76,0,0,1,1.89-2.9l-.4-1.82.81-1.21a17,17,0,0,1-1.21-5.93l.4-2.22-.27-.4v-.81a7.28,7.28,0,0,0-4.18-1.28,3.67,3.67,0,0,0-1.58.4q-.84.4-2.53,3.64a53.27,53.27,0,0,0-5.12,1.89l-1.21-2.63a2.18,2.18,0,0,1,.71-1.75,2,2,0,0,1,1.18-.61h1.15l1.08-1.48,2.09-.54-.81-.54v-.74l2.56.4,2.76-3,3.91-2.29.67-.88h.4l-.67-.94a2.06,2.06,0,0,0,.81.27q.54,0,.54-1.21a8,8,0,0,1,5-3.17,3.23,3.23,0,0,1,3-2.22v-.67Z"/><path class="cls-8" d="M1016,260.79q.81,0,1.82-1.21l.94.4,2.22-1.21,1.21.81a5,5,0,0,0,1.82-1.28l1.62-2.43,2.49-1.55,1.55-4.45-.54-.94.27-2.76-.61-1.21.61-8.56.27-1.82h.67v-.4h-.27l.54-.81-.27-.4.67-4.31V228h.27l-.27-3.44,1.28-2.22.54-4.72.74-2.49.54-2.7a3.9,3.9,0,0,0,.2-1l2.22-3.17a8.07,8.07,0,0,0,.94-2.76,22.69,22.69,0,0,1,2.22-4.72,3,3,0,0,1-.94-.94l3.44-5.66,2.22-5.66,2.9-4,1.28-2.63a5.34,5.34,0,0,1,1.21-1.82q1.48-.74,1.48-1.62l-.27-.88-5.12-.94q-.27.54-2.43,1.21l-1,1.28-.27-.27h.27l-.27-.4a19.38,19.38,0,0,1-3.34,2.29q-2.32,1.35-2.32,2.76a5.61,5.61,0,0,1-.54,1.82l-.67-.27-2.22,5-.81.67-1.28,3.17-.94.27.54.94-.54.61a20.69,20.69,0,0,1-1.68,4.38,10.79,10.79,0,0,1,1.28,4.18l-.54.54h-.34l-.4.67-.54.27h-.67l-.94,3.17V211q0,.2-1.82,6.06l.94,2.09h-2.22v1.62l-.67,1,.27,1.48-.54-.27v1.28h.27l-.27,1.21a1.53,1.53,0,0,0-.94,1.55,11.34,11.34,0,0,0,.27,1.89v.54a6.13,6.13,0,0,1-.17,1,39,39,0,0,0-.37,4.08l-.74,2.22-2.16.54.67,2.22a7.27,7.27,0,0,1-.67,2.22v.27a3.17,3.17,0,0,0-1.79.77q-.71.64-.71,1l-.27,3.37-1,4,1.28,4.11-1.28,3.77v.27l.74,1.21Z"/></g></g></svg>